<svg width="12" height="7" viewBox="0 0 12 7" fill="none" xmlns="http://www.w3.org/2000/svg">
<path d="M0.600361 0.500001H11.4007C11.51 0.50023 11.6172 0.520371 11.7107 0.558256C11.8042 0.596141 11.8804 0.650335 11.9312 0.715005C11.982 0.779675 12.0054 0.852373 11.9989 0.925272C11.9925 0.998171 11.9564 1.06851 11.8945 1.12872L6.49433 6.33801C6.27052 6.554 5.73171 6.554 5.5073 6.33801L0.107147 1.12872C0.0446404 1.06864 0.00798496 0.998262 0.00116339 0.925241C-0.00565818 0.85222 0.0176151 0.779348 0.0684546 0.71454C0.119294 0.649733 0.195755 0.595469 0.289531 0.557646C0.383307 0.519822 0.49081 0.499885 0.600361 0.500001Z" fill="#6225B0"/>
</svg>
