<svg width="12" height="13" viewBox="0 0 12 13" fill="none" xmlns="http://www.w3.org/2000/svg">
<path d="M11.0667 12.5L6.86667 8.3C6.53333 8.56667 6.15 8.77778 5.71667 8.93333C5.28333 9.08889 4.82222 9.16667 4.33333 9.16667C3.12222 9.16667 2.09733 8.74711 1.25867 7.908C0.42 7.06889 0.000444797 6.044 3.52734e-07 4.83333C-0.000444092 3.62267 0.419111 2.59778 1.25867 1.75867C2.09822 0.919556 3.12311 0.5 4.33333 0.5C5.54356 0.5 6.56867 0.919556 7.40867 1.75867C8.24867 2.59778 8.668 3.62267 8.66667 4.83333C8.66667 5.32222 8.58889 5.78333 8.43333 6.21667C8.27778 6.65 8.06667 7.03333 7.8 7.36667L12 11.5667L11.0667 12.5ZM4.33333 7.83333C5.16667 7.83333 5.87511 7.54178 6.45867 6.95867C7.04222 6.37556 7.33378 5.66711 7.33333 4.83333C7.33289 3.99956 7.04133 3.29133 6.45867 2.70867C5.876 2.126 5.16756 1.83422 4.33333 1.83333C3.49911 1.83244 2.79089 2.12422 2.20867 2.70867C1.62644 3.29311 1.33467 4.00133 1.33333 4.83333C1.332 5.66533 1.62378 6.37378 2.20867 6.95867C2.79356 7.54356 3.50178 7.83511 4.33333 7.83333Z" fill="#6225B0"/>
</svg>
